<mxfile host="app.diagrams.net" agent="Mozilla/5.0 (Macintosh; Intel Mac OS X 10_15_7) AppleWebKit/537.36 (KHTML, like Gecko) Chrome/138.0.0.0 Safari/537.36" version="28.2.5">
  <diagram name="Страница — 1" id="-kVOR0s2z0rnOZGPpCxH">
    <mxGraphModel dx="1204" dy="646" grid="1" gridSize="10" guides="1" tooltips="1" connect="1" arrows="1" fold="1" page="1" pageScale="1" pageWidth="827" pageHeight="1169" math="0" shadow="0">
      <root>
        <mxCell id="0" />
        <mxCell id="1" parent="0" />
        <mxCell id="Xx_YIjfu05tgnlOFpIRW-1" value="Пользователь&lt;div&gt;&lt;br&gt;&lt;/div&gt;" style="shape=umlActor;verticalLabelPosition=bottom;verticalAlign=top;html=1;outlineConnect=0;" vertex="1" parent="1">
          <mxGeometry x="70" y="40" width="30" height="60" as="geometry" />
        </mxCell>
        <mxCell id="Xx_YIjfu05tgnlOFpIRW-2" value="" style="endArrow=none;dashed=1;html=1;dashPattern=1 3;strokeWidth=2;rounded=0;" edge="1" parent="1" source="Xx_YIjfu05tgnlOFpIRW-12" target="Xx_YIjfu05tgnlOFpIRW-1">
          <mxGeometry width="50" height="50" relative="1" as="geometry">
            <mxPoint x="85" y="340" as="sourcePoint" />
            <mxPoint x="410" y="280" as="targetPoint" />
          </mxGeometry>
        </mxCell>
        <mxCell id="Xx_YIjfu05tgnlOFpIRW-3" value="Датчик движения" style="rounded=0;whiteSpace=wrap;html=1;" vertex="1" parent="1">
          <mxGeometry x="160" y="75" width="90" height="30" as="geometry" />
        </mxCell>
        <mxCell id="Xx_YIjfu05tgnlOFpIRW-4" value="Контроллер" style="rounded=0;whiteSpace=wrap;html=1;" vertex="1" parent="1">
          <mxGeometry x="280" y="75" width="90" height="30" as="geometry" />
        </mxCell>
        <mxCell id="Xx_YIjfu05tgnlOFpIRW-5" value="Диммер" style="rounded=0;whiteSpace=wrap;html=1;" vertex="1" parent="1">
          <mxGeometry x="590" y="75" width="90" height="35" as="geometry" />
        </mxCell>
        <mxCell id="Xx_YIjfu05tgnlOFpIRW-6" value="RGB лента" style="rounded=0;whiteSpace=wrap;html=1;" vertex="1" parent="1">
          <mxGeometry x="700" y="75" width="90" height="30" as="geometry" />
        </mxCell>
        <mxCell id="Xx_YIjfu05tgnlOFpIRW-7" value="" style="endArrow=none;dashed=1;html=1;dashPattern=1 3;strokeWidth=2;rounded=0;entryX=0.5;entryY=1;entryDx=0;entryDy=0;" edge="1" parent="1" source="Xx_YIjfu05tgnlOFpIRW-14" target="Xx_YIjfu05tgnlOFpIRW-3">
          <mxGeometry width="50" height="50" relative="1" as="geometry">
            <mxPoint x="205" y="340" as="sourcePoint" />
            <mxPoint x="80" y="220" as="targetPoint" />
          </mxGeometry>
        </mxCell>
        <mxCell id="Xx_YIjfu05tgnlOFpIRW-8" value="" style="endArrow=none;dashed=1;html=1;dashPattern=1 3;strokeWidth=2;rounded=0;entryX=0.5;entryY=1;entryDx=0;entryDy=0;" edge="1" parent="1">
          <mxGeometry width="50" height="50" relative="1" as="geometry">
            <mxPoint x="324.5" y="340" as="sourcePoint" />
            <mxPoint x="324.5" y="105" as="targetPoint" />
          </mxGeometry>
        </mxCell>
        <mxCell id="Xx_YIjfu05tgnlOFpIRW-9" value="" style="endArrow=none;dashed=1;html=1;dashPattern=1 3;strokeWidth=2;rounded=0;entryX=0.5;entryY=1;entryDx=0;entryDy=0;exitX=0.5;exitY=0;exitDx=0;exitDy=0;" edge="1" parent="1" source="Xx_YIjfu05tgnlOFpIRW-37">
          <mxGeometry width="50" height="50" relative="1" as="geometry">
            <mxPoint x="635" y="296" as="sourcePoint" />
            <mxPoint x="634.5" y="111" as="targetPoint" />
          </mxGeometry>
        </mxCell>
        <mxCell id="Xx_YIjfu05tgnlOFpIRW-10" value="" style="endArrow=none;dashed=1;html=1;dashPattern=1 3;strokeWidth=2;rounded=0;entryX=0.5;entryY=1;entryDx=0;entryDy=0;" edge="1" parent="1" source="Xx_YIjfu05tgnlOFpIRW-48">
          <mxGeometry width="50" height="50" relative="1" as="geometry">
            <mxPoint x="745" y="350" as="sourcePoint" />
            <mxPoint x="744.5" y="105" as="targetPoint" />
          </mxGeometry>
        </mxCell>
        <mxCell id="Xx_YIjfu05tgnlOFpIRW-11" value="" style="endArrow=none;dashed=1;html=1;dashPattern=1 3;strokeWidth=2;rounded=0;" edge="1" parent="1" target="Xx_YIjfu05tgnlOFpIRW-12">
          <mxGeometry width="50" height="50" relative="1" as="geometry">
            <mxPoint x="85" y="340" as="sourcePoint" />
            <mxPoint x="85" y="100" as="targetPoint" />
          </mxGeometry>
        </mxCell>
        <mxCell id="Xx_YIjfu05tgnlOFpIRW-12" value="" style="rounded=0;whiteSpace=wrap;html=1;" vertex="1" parent="1">
          <mxGeometry x="77.5" y="130" width="15" height="220" as="geometry" />
        </mxCell>
        <mxCell id="Xx_YIjfu05tgnlOFpIRW-13" value="" style="endArrow=none;dashed=1;html=1;dashPattern=1 3;strokeWidth=2;rounded=0;entryX=0.5;entryY=1;entryDx=0;entryDy=0;" edge="1" parent="1" target="Xx_YIjfu05tgnlOFpIRW-14">
          <mxGeometry width="50" height="50" relative="1" as="geometry">
            <mxPoint x="205" y="340" as="sourcePoint" />
            <mxPoint x="205" y="105" as="targetPoint" />
          </mxGeometry>
        </mxCell>
        <mxCell id="Xx_YIjfu05tgnlOFpIRW-14" value="" style="rounded=0;whiteSpace=wrap;html=1;" vertex="1" parent="1">
          <mxGeometry x="197.5" y="130" width="15" height="40" as="geometry" />
        </mxCell>
        <mxCell id="Xx_YIjfu05tgnlOFpIRW-15" value="" style="endArrow=classic;html=1;rounded=0;exitX=0.75;exitY=0;exitDx=0;exitDy=0;entryX=0;entryY=0;entryDx=0;entryDy=0;" edge="1" parent="1" source="Xx_YIjfu05tgnlOFpIRW-12" target="Xx_YIjfu05tgnlOFpIRW-14">
          <mxGeometry width="50" height="50" relative="1" as="geometry">
            <mxPoint x="340" y="330" as="sourcePoint" />
            <mxPoint x="390" y="280" as="targetPoint" />
          </mxGeometry>
        </mxCell>
        <mxCell id="Xx_YIjfu05tgnlOFpIRW-16" value="1 : Происходит&amp;nbsp;&lt;div&gt;движение&lt;/div&gt;" style="edgeLabel;html=1;align=center;verticalAlign=middle;resizable=0;points=[];" vertex="1" connectable="0" parent="Xx_YIjfu05tgnlOFpIRW-15">
          <mxGeometry x="-0.646" y="-1" relative="1" as="geometry">
            <mxPoint x="32" y="19" as="offset" />
          </mxGeometry>
        </mxCell>
        <mxCell id="Xx_YIjfu05tgnlOFpIRW-17" value="" style="rounded=0;whiteSpace=wrap;html=1;" vertex="1" parent="1">
          <mxGeometry x="317.5" y="170" width="15" height="140" as="geometry" />
        </mxCell>
        <mxCell id="Xx_YIjfu05tgnlOFpIRW-18" value="" style="endArrow=classic;html=1;rounded=0;entryX=0;entryY=0;entryDx=0;entryDy=0;" edge="1" parent="1" target="Xx_YIjfu05tgnlOFpIRW-17">
          <mxGeometry width="50" height="50" relative="1" as="geometry">
            <mxPoint x="210" y="170" as="sourcePoint" />
            <mxPoint x="317.5" y="169" as="targetPoint" />
          </mxGeometry>
        </mxCell>
        <mxCell id="Xx_YIjfu05tgnlOFpIRW-19" value="2 : Сигнал о&amp;nbsp;&lt;div&gt;движении&lt;/div&gt;" style="edgeLabel;html=1;align=center;verticalAlign=middle;resizable=0;points=[];" vertex="1" connectable="0" parent="Xx_YIjfu05tgnlOFpIRW-18">
          <mxGeometry x="-0.646" y="-1" relative="1" as="geometry">
            <mxPoint x="32" y="19" as="offset" />
          </mxGeometry>
        </mxCell>
        <mxCell id="Xx_YIjfu05tgnlOFpIRW-23" value="" style="endArrow=none;dashed=1;html=1;dashPattern=1 3;strokeWidth=2;rounded=0;entryX=0.5;entryY=1;entryDx=0;entryDy=0;" edge="1" parent="1">
          <mxGeometry width="50" height="50" relative="1" as="geometry">
            <mxPoint x="634.5" y="340" as="sourcePoint" />
            <mxPoint x="635" y="350" as="targetPoint" />
          </mxGeometry>
        </mxCell>
        <mxCell id="Xx_YIjfu05tgnlOFpIRW-35" value="" style="html=1;labelBackgroundColor=#ffffff;startArrow=none;startFill=0;startSize=6;endArrow=classic;endFill=1;endSize=6;jettySize=auto;orthogonalLoop=1;strokeWidth=1;dashed=1;fontSize=14;rounded=0;exitX=0;exitY=1;exitDx=0;exitDy=0;" edge="1" parent="1" source="Xx_YIjfu05tgnlOFpIRW-48">
          <mxGeometry width="60" height="60" relative="1" as="geometry">
            <mxPoint x="645.6700000000001" y="348.81399999999996" as="sourcePoint" />
            <mxPoint x="100" y="350" as="targetPoint" />
          </mxGeometry>
        </mxCell>
        <mxCell id="Xx_YIjfu05tgnlOFpIRW-36" value="7 : Изменение насыщенности RGB ленты" style="edgeLabel;html=1;align=center;verticalAlign=middle;resizable=0;points=[];" vertex="1" connectable="0" parent="Xx_YIjfu05tgnlOFpIRW-35">
          <mxGeometry x="0.1895" y="3" relative="1" as="geometry">
            <mxPoint x="13" y="17" as="offset" />
          </mxGeometry>
        </mxCell>
        <mxCell id="Xx_YIjfu05tgnlOFpIRW-38" value="" style="endArrow=classic;html=1;rounded=0;exitX=1;exitY=0;exitDx=0;exitDy=0;entryX=0.98;entryY=0.22;entryDx=0;entryDy=0;entryPerimeter=0;" edge="1" parent="1" source="Xx_YIjfu05tgnlOFpIRW-17" target="Xx_YIjfu05tgnlOFpIRW-17">
          <mxGeometry width="50" height="50" relative="1" as="geometry">
            <mxPoint x="390" y="340" as="sourcePoint" />
            <mxPoint x="340" y="200" as="targetPoint" />
            <Array as="points">
              <mxPoint x="450" y="170" />
              <mxPoint x="450" y="200" />
            </Array>
          </mxGeometry>
        </mxCell>
        <mxCell id="Xx_YIjfu05tgnlOFpIRW-39" value="" style="endArrow=classic;html=1;rounded=0;exitX=1;exitY=0;exitDx=0;exitDy=0;" edge="1" parent="1">
          <mxGeometry width="50" height="50" relative="1" as="geometry">
            <mxPoint x="334" y="170" as="sourcePoint" />
            <mxPoint x="334" y="230" as="targetPoint" />
            <Array as="points">
              <mxPoint x="414" y="170" />
              <mxPoint x="414" y="230" />
            </Array>
          </mxGeometry>
        </mxCell>
        <mxCell id="Xx_YIjfu05tgnlOFpIRW-40" value="" style="endArrow=classic;html=1;rounded=0;exitX=1;exitY=0;exitDx=0;exitDy=0;entryX=0.911;entryY=0.635;entryDx=0;entryDy=0;entryPerimeter=0;" edge="1" parent="1" target="Xx_YIjfu05tgnlOFpIRW-17">
          <mxGeometry width="50" height="50" relative="1" as="geometry">
            <mxPoint x="332.5" y="170" as="sourcePoint" />
            <mxPoint x="332.5" y="250" as="targetPoint" />
            <Array as="points">
              <mxPoint x="382.5" y="170" />
              <mxPoint x="383" y="260" />
            </Array>
          </mxGeometry>
        </mxCell>
        <mxCell id="Xx_YIjfu05tgnlOFpIRW-41" value="3.1 : [newValue &amp;lt;= MIN_VALUE]&lt;div&gt;value = 0&lt;/div&gt;" style="edgeLabel;html=1;align=center;verticalAlign=middle;resizable=0;points=[];" vertex="1" connectable="0" parent="1">
          <mxGeometry x="530" y="180" as="geometry" />
        </mxCell>
        <mxCell id="Xx_YIjfu05tgnlOFpIRW-42" value="3.2 : [newValue &amp;gt;= MAX_VALUE]&lt;div&gt;value = 255&lt;/div&gt;" style="edgeLabel;html=1;align=center;verticalAlign=middle;resizable=0;points=[];" vertex="1" connectable="0" parent="1">
          <mxGeometry x="500" y="220" as="geometry" />
        </mxCell>
        <mxCell id="Xx_YIjfu05tgnlOFpIRW-43" value="3.3 : else&lt;div&gt;value = newValue/10&lt;/div&gt;" style="edgeLabel;html=1;align=center;verticalAlign=middle;resizable=0;points=[];" vertex="1" connectable="0" parent="1">
          <mxGeometry x="440" y="250" as="geometry" />
        </mxCell>
        <mxCell id="Xx_YIjfu05tgnlOFpIRW-44" value="" style="endArrow=classic;html=1;rounded=0;entryX=0;entryY=0;entryDx=0;entryDy=0;" edge="1" parent="1">
          <mxGeometry width="50" height="50" relative="1" as="geometry">
            <mxPoint x="332" y="280" as="sourcePoint" />
            <mxPoint x="627.5" y="280" as="targetPoint" />
          </mxGeometry>
        </mxCell>
        <mxCell id="Xx_YIjfu05tgnlOFpIRW-45" value="4 : Сигнал о&amp;nbsp;&lt;div&gt;новом значении value&lt;/div&gt;" style="edgeLabel;html=1;align=center;verticalAlign=middle;resizable=0;points=[];" vertex="1" connectable="0" parent="Xx_YIjfu05tgnlOFpIRW-44">
          <mxGeometry x="-0.646" y="-1" relative="1" as="geometry">
            <mxPoint x="183" y="-19" as="offset" />
          </mxGeometry>
        </mxCell>
        <mxCell id="Xx_YIjfu05tgnlOFpIRW-47" value="" style="endArrow=none;dashed=1;html=1;dashPattern=1 3;strokeWidth=2;rounded=0;entryX=0.5;entryY=1;entryDx=0;entryDy=0;exitX=0.5;exitY=0;exitDx=0;exitDy=0;" edge="1" parent="1" target="Xx_YIjfu05tgnlOFpIRW-37">
          <mxGeometry width="50" height="50" relative="1" as="geometry">
            <mxPoint x="635" y="296" as="sourcePoint" />
            <mxPoint x="634.5" y="111" as="targetPoint" />
          </mxGeometry>
        </mxCell>
        <mxCell id="Xx_YIjfu05tgnlOFpIRW-37" value="" style="rounded=0;whiteSpace=wrap;html=1;" vertex="1" parent="1">
          <mxGeometry x="627.5" y="280" width="15" height="40" as="geometry" />
        </mxCell>
        <mxCell id="Xx_YIjfu05tgnlOFpIRW-49" value="" style="endArrow=none;dashed=1;html=1;dashPattern=1 3;strokeWidth=2;rounded=0;entryX=0.5;entryY=1;entryDx=0;entryDy=0;" edge="1" parent="1" target="Xx_YIjfu05tgnlOFpIRW-48">
          <mxGeometry width="50" height="50" relative="1" as="geometry">
            <mxPoint x="745" y="350" as="sourcePoint" />
            <mxPoint x="744.5" y="105" as="targetPoint" />
          </mxGeometry>
        </mxCell>
        <mxCell id="Xx_YIjfu05tgnlOFpIRW-48" value="" style="rounded=0;whiteSpace=wrap;html=1;" vertex="1" parent="1">
          <mxGeometry x="737.5" y="290" width="15" height="60" as="geometry" />
        </mxCell>
        <mxCell id="Xx_YIjfu05tgnlOFpIRW-50" value="" style="endArrow=classic;html=1;rounded=0;" edge="1" parent="1">
          <mxGeometry width="50" height="50" relative="1" as="geometry">
            <mxPoint x="642.5" y="290" as="sourcePoint" />
            <mxPoint x="740" y="290" as="targetPoint" />
          </mxGeometry>
        </mxCell>
        <mxCell id="Xx_YIjfu05tgnlOFpIRW-51" value="5 : Сигнал об&amp;nbsp;&lt;div&gt;изменении&lt;/div&gt;&lt;div&gt;насыщенности&lt;/div&gt;" style="edgeLabel;html=1;align=center;verticalAlign=middle;resizable=0;points=[];" vertex="1" connectable="0" parent="Xx_YIjfu05tgnlOFpIRW-50">
          <mxGeometry x="-0.646" y="-1" relative="1" as="geometry">
            <mxPoint x="32" y="-21" as="offset" />
          </mxGeometry>
        </mxCell>
        <mxCell id="Xx_YIjfu05tgnlOFpIRW-52" value="" style="html=1;labelBackgroundColor=#ffffff;startArrow=none;startFill=0;startSize=6;endArrow=classic;endFill=1;endSize=6;jettySize=auto;orthogonalLoop=1;strokeWidth=1;dashed=1;fontSize=14;rounded=0;" edge="1" parent="1">
          <mxGeometry width="60" height="60" relative="1" as="geometry">
            <mxPoint x="630" y="310" as="sourcePoint" />
            <mxPoint x="332.5" y="309.31" as="targetPoint" />
          </mxGeometry>
        </mxCell>
        <mxCell id="Xx_YIjfu05tgnlOFpIRW-53" value="6 : Сигнал об изменении состояния диммера" style="edgeLabel;html=1;align=center;verticalAlign=middle;resizable=0;points=[];" vertex="1" connectable="0" parent="Xx_YIjfu05tgnlOFpIRW-52">
          <mxGeometry x="0.1895" y="3" relative="1" as="geometry">
            <mxPoint x="18" y="7" as="offset" />
          </mxGeometry>
        </mxCell>
      </root>
    </mxGraphModel>
  </diagram>
</mxfile>
